<svg version="1.1" id="Layer_1" xmlns="http://www.w3.org/2000/svg" xmlns:xlink="http://www.w3.org/1999/xlink" x="0px" y="0px"
	 width="100%" viewBox="0 0 149 149" enable-background="new 0 0 149 149" xml:space="preserve">
<path fill="#FDFDFD" opacity="1.000000" stroke="none" 
	d="
M150.000000,62.000000 
	C150.000000,91.642181 150.000000,120.784363 150.000000,149.963272 
	C100.399529,149.963272 50.799026,149.963272 1.099261,149.963272 
	C1.099261,100.441376 1.099261,50.882484 1.099261,1.161797 
	C50.666241,1.161797 100.333076,1.161797 150.000000,1.161797 
	C150.000000,21.200609 150.000000,41.350304 150.000000,62.000000 
M28.886366,126.747734 
	C28.886366,126.747734 28.873009,126.683266 29.617235,126.846939 
	C34.486794,129.450989 39.457016,131.884521 44.208221,134.689072 
	C63.237034,145.921432 88.312325,144.547104 104.706192,131.048615 
	C107.594749,128.670227 109.917236,125.604347 112.501144,122.855965 
	C77.683792,138.175995 46.154598,139.020752 19.246469,105.970001 
	C18.755430,115.536949 23.424938,121.356163 28.886366,126.747734 
M101.580811,54.979069 
	C102.474541,53.911934 103.368263,52.844803 104.261993,51.777672 
	C103.920860,51.396564 103.579735,51.015461 103.238609,50.634354 
	C91.651573,56.209511 81.686485,63.984028 73.684082,74.059059 
	C51.098522,64.547890 43.062527,62.601768 35.745384,64.855179 
	C58.326317,73.290901 72.653709,88.787560 77.233910,113.159172 
	C80.951698,91.920395 85.967331,71.594315 101.580811,54.979069 
M14.416300,86.030365 
	C19.812716,103.769989 36.626205,120.600143 48.890133,119.363449 
	C32.732815,108.881706 25.808311,93.338928 21.780123,76.141228 
	C17.594463,58.271221 20.456953,41.831749 32.921391,27.553616 
	C27.497705,26.138491 17.671988,34.503330 16.839605,40.360180 
	C16.569891,42.257957 15.441634,44.033722 14.814839,45.594498 
	C14.630416,45.539875 15.982794,45.763214 15.979939,45.967621 
	C15.957156,47.599228 15.964297,49.328308 15.431182,50.840260 
	C11.427494,62.195011 11.116769,73.649384 14.416300,86.030365 
M132.086349,53.439487 
	C124.423973,39.765377 110.026253,28.932335 101.593491,30.698187 
	C117.606331,40.591221 124.713409,56.141190 128.694611,73.388634 
	C132.820908,91.264694 130.404312,108.049408 117.192253,122.901291 
	C119.170799,123.126640 120.182671,123.557007 120.928802,123.277634 
	C127.623657,120.770851 134.943893,111.301773 134.316391,103.828102 
	C134.209885,102.559502 134.065628,101.124672 134.521652,100.003761 
	C140.885590,84.361252 139.456039,69.113777 132.086349,53.439487 
M81.917885,21.040609 
	C95.301460,19.711105 107.480347,23.069748 118.575584,31.263842 
	C119.001549,23.702341 107.754532,14.889837 100.448753,16.097338 
	C98.792007,16.371166 96.941841,16.336826 95.331253,15.895229 
	C77.994583,11.141764 61.684574,13.322530 46.647785,23.251606 
	C35.655182,30.510229 29.575321,41.166973 26.751553,53.907742 
	C28.188648,53.108967 29.045338,51.883675 30.003685,50.743855 
	C33.410500,46.691914 36.393627,42.132999 40.366669,38.736275 
	C52.041466,28.754978 65.940773,23.492487 81.917885,21.040609 
M69.804306,59.960754 
	C79.622032,59.779682 85.239090,51.251026 80.669464,43.463654 
	C78.110855,39.103374 73.118805,36.992302 68.246567,38.210171 
	C63.670757,39.353939 60.259933,43.566090 60.027191,48.360588 
	C59.755219,53.963299 62.710644,57.757088 69.804306,59.960754 
z"/>
<path fill="#858585" opacity="1.000000" stroke="none" 
	d="
M101.299759,55.213196 
	C85.967331,71.594315 80.951698,91.920395 77.233910,113.159172 
	C72.653709,88.787560 58.326317,73.290901 35.745384,64.855179 
	C43.062527,62.601768 51.098522,64.547890 73.684082,74.059059 
	C81.686485,63.984028 91.651573,56.209511 103.238609,50.634354 
	C103.579735,51.015461 103.920860,51.396564 104.261993,51.777672 
	C103.368263,52.844803 102.474541,53.911934 101.299759,55.213196 
z"/>
<path fill="#0D78C0" opacity="1.000000" stroke="none" 
	d="
M14.303749,85.636353 
	C11.116769,73.649384 11.427494,62.195011 15.431182,50.840260 
	C15.964297,49.328308 15.957156,47.599228 15.979939,45.967621 
	C15.982794,45.763214 14.630416,45.539875 14.814839,45.594498 
	C15.441634,44.033722 16.569891,42.257957 16.839605,40.360180 
	C17.671988,34.503330 27.497705,26.138491 32.921391,27.553616 
	C20.456953,41.831749 17.594463,58.271221 21.780123,76.141228 
	C25.808311,93.338928 32.732815,108.881706 48.890133,119.363449 
	C36.626205,120.600143 19.812716,103.769989 14.303749,85.636353 
z"/>
<path fill="#EE2931" opacity="1.000000" stroke="none" 
	d="
M28.911488,126.808594 
	C23.424938,121.356163 18.755430,115.536949 19.246469,105.970001 
	C46.154598,139.020752 77.683792,138.175995 112.501144,122.855965 
	C109.917236,125.604347 107.594749,128.670227 104.706192,131.048615 
	C88.312325,144.547104 63.237034,145.921432 44.208221,134.689072 
	C39.457016,131.884521 34.486794,129.450989 29.368942,127.183578 
	C29.640236,127.331024 30.163939,127.151527 30.672148,126.935577 
	C30.716225,126.916840 30.658058,126.657494 30.647385,126.509918 
	C30.068752,126.609474 29.490120,126.709038 28.911488,126.808594 
z"/>
<path fill="#FBB546" opacity="1.000000" stroke="none" 
	d="
M132.250214,53.773048 
	C139.456039,69.113777 140.885590,84.361252 134.521652,100.003761 
	C134.065628,101.124672 134.209885,102.559502 134.316391,103.828102 
	C134.943893,111.301773 127.623657,120.770851 120.928802,123.277634 
	C120.182671,123.557007 119.170799,123.126640 117.192253,122.901291 
	C130.404312,108.049408 132.820908,91.264694 128.694611,73.388634 
	C124.713409,56.141190 117.606331,40.591221 101.593491,30.698187 
	C110.026253,28.932335 124.423973,39.765377 132.250214,53.773048 
z"/>
<path fill="#92C94A" opacity="1.000000" stroke="none" 
	d="
M81.465866,21.092464 
	C65.940773,23.492487 52.041466,28.754978 40.366669,38.736275 
	C36.393627,42.132999 33.410500,46.691914 30.003685,50.743855 
	C29.045338,51.883675 28.188648,53.108967 26.751553,53.907742 
	C29.575321,41.166973 35.655182,30.510229 46.647785,23.251606 
	C61.684574,13.322530 77.994583,11.141764 95.331253,15.895229 
	C96.941841,16.336826 98.792007,16.371166 100.448753,16.097338 
	C107.754532,14.889837 119.001549,23.702341 118.575584,31.263842 
	C107.480347,23.069748 95.301460,19.711105 81.465866,21.092464 
z"/>
<path fill="#848484" opacity="1.000000" stroke="none" 
	d="
M69.400177,59.917206 
	C62.710644,57.757088 59.755219,53.963299 60.027191,48.360588 
	C60.259933,43.566090 63.670757,39.353939 68.246567,38.210171 
	C73.118805,36.992302 78.110855,39.103374 80.669464,43.463654 
	C85.239090,51.251026 79.622032,59.779682 69.400177,59.917206 
z"/>
<path fill="#FDFDFD" opacity="1.000000" stroke="none" 
	d="
M28.898926,126.778168 
	C29.490120,126.709038 30.068752,126.609474 30.647385,126.509918 
	C30.658058,126.657494 30.716225,126.916840 30.672148,126.935577 
	C30.163939,127.151527 29.640236,127.331024 28.996830,127.101738 
	C28.873009,126.683266 28.886366,126.747734 28.898926,126.778168 
z"/>
</svg>